<?xml version="1.0" standalone="no"?>
<!DOCTYPE svg PUBLIC "-//W3C//DTD SVG 20010904//EN"
 "http://www.w3.org/TR/2001/REC-SVG-20010904/DTD/svg10.dtd">
<svg version="1.0" xmlns="http://www.w3.org/2000/svg"
 width="474.000000pt" height="474.000000pt" viewBox="0 0 474.000000 474.000000"
 preserveAspectRatio="xMidYMid meet">
<metadata>
Created by potrace 1.14, written by Peter Selinger 2001-2017
</metadata>
<g transform="translate(0.000000,474.000000) scale(0.100000,-0.100000)"
fill="#000000" stroke="none">
<path d="M798 4735 c-2 -2 -24 -6 -50 -9 -62 -8 -167 -41 -237 -74 -93 -43
-172 -101 -256 -187 -86 -87 -145 -178 -189 -289 -58 -145 -56 -62 -56 -1812
0 -1555 1 -1613 19 -1686 88 -344 341 -582 706 -664 17 -4 742 -8 1611 -9
1591 -2 1592 -2 1740 29 44 9 161 61 229 100 91 53 237 200 291 291 51 88 91
188 110 274 21 102 21 3257 -1 3350 -39 166 -116 301 -240 426 -125 125 -256
198 -431 242 -64 16 -192 17 -1656 19 -873 0 -1589 0 -1590 -1z m1323 -1042
c3 -31 10 -49 29 -67 20 -20 30 -21 324 -22 269 0 307 -2 330 -17 49 -32 59
-61 61 -165 2 -97 -10 -144 -37 -155 -7 -3 -3 -6 9 -6 12 -1 34 -11 49 -24 25
-22 26 -27 27 -127 0 -100 -1 -104 -27 -127 -15 -12 -37 -23 -49 -23 -21 0
-22 -4 -23 -98 -3 -148 -56 -258 -157 -325 -50 -33 -87 -89 -87 -132 l0 -35
53 -1 c270 -4 516 -188 604 -452 l27 -82 4 -389 c2 -259 0 -392 -7 -399 -11
-11 -1741 -15 -1760 -3 -17 11 -13 721 6 811 52 254 280 470 538 509 17 2 64
5 106 5 73 1 77 2 81 26 3 13 -1 35 -8 47 -8 13 -17 31 -20 40 -3 10 -28 33
-53 52 -111 79 -160 177 -164 329 l-3 91 -30 8 c-57 15 -67 36 -67 148 1 111
10 133 63 145 28 6 28 7 9 26 -22 22 -21 17 -20 172 1 151 17 190 96 231 31
16 94 22 96 9z"/>
<path d="M2038 3634 c-49 -26 -61 -66 -61 -197 1 -65 3 -121 6 -124 7 -7 813
-7 824 0 5 3 8 49 7 102 -2 148 22 138 -346 140 -334 1 -343 3 -374 61 -21 39
-20 38 -56 18z"/>
<path d="M2026 3251 c-1 -3 -2 -112 -1 -242 2 -233 2 -236 29 -295 26 -56 73
-116 106 -134 13 -7 15 3 14 62 0 79 15 120 58 151 24 18 43 20 156 20 194 1
221 -18 231 -160 l6 -83 27 25 c43 40 76 88 94 136 24 64 28 517 4 523 -23 7
-720 4 -724 -3z m285 -72 c18 -13 29 -29 29 -45 0 -31 -11 -30 -60 2 -45 30
-94 28 -125 -6 -22 -24 -41 -26 -49 -4 -8 21 18 52 59 71 39 17 108 9 146 -18z
m320 16 c28 -16 59 -49 59 -62 0 -24 -30 -26 -54 -4 -13 12 -39 24 -58 27 -27
5 -40 1 -66 -21 -33 -27 -62 -28 -62 -1 0 52 124 94 181 61z m-380 -95 c26
-15 26 -66 -1 -80 -47 -25 -94 22 -65 66 17 26 35 30 66 14z m353 -5 c26 -27
-1 -85 -40 -85 -20 0 -44 30 -44 55 0 40 54 59 84 30z m-232 -160 c6 -14 14
-25 17 -25 12 0 28 15 34 33 8 21 36 22 44 1 9 -24 -14 -63 -44 -75 -35 -13
-81 6 -94 39 -19 50 21 75 43 27z"/>
<path d="M1934 3199 c-9 -14 -9 -163 0 -178 4 -6 15 -11 25 -11 15 0 17 11 17
100 -1 88 -3 100 -18 100 -9 0 -20 -5 -24 -11z"/>
<path d="M2819 3208 c-5 -12 -3 -182 2 -190 11 -18 39 -1 40 24 3 58 1 139 -4
153 -5 12 -34 22 -38 13z"/>
<path d="M2272 2759 c-40 -15 -50 -47 -48 -153 3 -134 5 -136 173 -136 118 0
125 1 148 25 23 22 25 32 25 119 0 85 -2 98 -23 122 -23 26 -27 27 -139 29
-63 1 -124 -2 -136 -6z m236 -48 c18 -2 15 -29 -5 -39 -10 -4 -62 -8 -115 -7
-101 1 -132 11 -110 37 8 10 39 13 114 12 57 -1 109 -2 116 -3z m-69 -106 c22
-22 -9 -39 -66 -36 -21 1 -32 28 -18 43 9 9 73 4 84 -7z"/>
<path d="M2270 2367 c0 -97 62 -164 140 -152 73 12 112 67 108 152 l-3 48
-122 2 -123 3 0 -53z"/>
<path d="M2002 2305 c-177 -39 -338 -170 -416 -339 -50 -108 -54 -143 -55
-519 l-2 -356 28 -3 c15 -2 83 -2 151 0 l122 3 0 339 c0 343 4 379 36 336 9
-13 12 -97 12 -342 0 -179 2 -328 5 -330 3 -4 576 -6 902 -4 l80 0 0 340 c0
321 1 341 18 346 10 3 21 3 25 0 3 -3 6 -159 6 -346 l1 -340 92 -1 c118 -1
180 -1 193 0 16 1 12 670 -4 746 -29 133 -94 246 -193 334 -55 50 -170 115
-223 127 -116 26 -120 26 -120 -12 0 -36 -37 -104 -79 -143 -151 -142 -396
-72 -446 127 -11 42 -15 47 -41 49 -16 1 -57 -4 -92 -12z"/>
<path d="M2184 2276 c19 -61 57 -108 112 -135 130 -65 274 1 312 142 11 38 10
38 -15 35 -19 -2 -29 -11 -34 -30 -20 -75 -101 -131 -178 -124 -73 7 -131 59
-155 139 -3 10 -15 17 -30 17 -25 0 -25 0 -12 -44z"/>
</g>
</svg>
