<svg xmlns="http://www.w3.org/2000/svg" width="512" height="512" viewBox="0 0 612.001 612.001"><path d="M201.582 398.487c0-57.43 74.473-66.617 74.473-98.255 0-13.901-10.759-22.212-24.221-22.212-18.613 0-28.715 18.851-28.715 18.851l-21.536-14.357s14.576-31.857 52.717-31.857c28.039 0 51.822 17.042 51.822 47.109 0 51.147-71.331 59.896-72.007 89.962h74.473v24.897H202.934c-.676-5.15-1.352-9.644-1.352-14.138zm123.227-44.642l68.646-100.503h34.322v94.219h20.642v24.021h-20.642v41.045h-28.495v-41.045h-74.473v-17.737zm74.472-6.284v-49.337c0-7.854 1.132-16.604 1.132-16.604h-.457s-3.58 8.512-7.854 14.576l-36.789 50.927v.438h43.968zm140.496-8.443l-5.543 19.855c-31.507 112.862-146.474 184.08-260.201 155.853-109.234-27.11-177.122-132.956-160.798-240.793l32.914 9.188c7.629 2.13 14.704-4.798 12.733-12.471l-35.794-139.38c-1.97-7.672-11.506-10.334-17.166-4.792L3.097 227.26c-5.66 5.542-3.198 15.134 4.433 17.264l35.826 10.001C16.62 400.396 106.611 545.678 253.463 583.919c152.489 39.71 308.024-54.678 350.394-206.45l5.299-18.982c1.528-5.474-1.67-11.149-7.144-12.678l-49.557-13.835c-5.474-1.529-11.15 1.671-12.678 7.144zm58.559-86.85l-51.97 6.752c-5.636.732-9.61 5.894-8.879 11.53l2.048 15.762c.732 5.636 5.895 9.611 11.53 8.878l51.97-6.752c5.636-.732 9.61-5.894 8.879-11.53l-2.049-15.762c-.731-5.635-5.893-9.61-11.529-8.878zm-40.008-98.204l-45.655 25.729c-4.951 2.79-6.703 9.065-3.913 14.017l7.803 13.847c2.79 4.951 9.065 6.703 14.017 3.913l45.655-25.729c4.951-2.79 6.703-9.065 3.913-14.017l-7.803-13.847c-2.79-4.951-9.066-6.703-14.017-3.913zm-73.881-76.066l-32.694 40.958c-3.546 4.441-2.818 10.917 1.623 14.461l12.423 9.916c4.441 3.546 10.916 2.819 14.461-1.623l32.694-40.958c3.546-4.442 2.818-10.917-1.623-14.462l-12.423-9.916c-4.441-3.544-10.916-2.818-14.461 1.624zM387.45 35.147L372.48 85.37c-1.624 5.446 1.476 11.178 6.921 12.801l15.233 4.54c5.445 1.624 11.177-1.476 12.801-6.921l14.97-50.223c1.623-5.446-1.476-11.177-6.922-12.801l-15.232-4.54c-5.446-1.624-11.178 1.475-12.801 6.921zm-105.986-3.395l4.933 52.174c.535 5.658 5.556 9.811 11.213 9.276l15.824-1.497c5.658-.535 9.811-5.555 9.276-11.213l-4.934-52.174c-.535-5.658-5.556-9.81-11.213-9.275l-15.824 1.496c-5.657.535-9.81 5.555-9.275 11.213zm-99.54 36.556l24.119 46.526c2.615 5.045 8.826 7.015 13.872 4.399l14.111-7.314c5.045-2.616 7.015-8.826 4.399-13.872l-24.119-46.526c-2.615-5.045-8.826-7.015-13.872-4.399l-14.111 7.315c-5.045 2.614-7.014 8.825-4.399 13.871z" fill="#c51abb"/></svg>