<svg xmlns="http://www.w3.org/2000/svg" width="512" height="512"><path d="M448.532 106.963h-74.501l-36.645-54.968a20.682 20.682 0 00-17.208-9.211H191.822a20.678 20.678 0 00-17.208 9.211l-36.645 54.968H63.467C28.472 106.963 0 135.434 0 170.43v235.318c0 34.996 28.472 63.467 63.467 63.467h385.065c34.996 0 63.468-28.471 63.468-63.467V170.43c0-34.995-28.472-63.467-63.468-63.467zm22.104 298.785c0 12.188-9.916 22.102-22.103 22.102H63.467c-12.187 0-22.102-9.915-22.102-22.102V170.43c0-12.187 9.916-22.102 22.102-22.102h85.57a20.683 20.683 0 0017.209-9.21l36.645-54.968h106.217l36.645 54.968a20.682 20.682 0 0017.209 9.21h85.57c12.188 0 22.103 9.915 22.103 22.102v235.318z" fill="#c51abb"/><path d="M256 171.141c-58.588 0-106.252 47.665-106.252 106.252 0 58.588 47.665 106.252 106.252 106.252s106.252-47.665 106.252-106.252c0-58.587-47.664-106.252-106.252-106.252zm0 171.14c-35.779 0-64.888-29.109-64.888-64.888s29.109-64.888 64.888-64.888 64.888 29.109 64.888 64.888c0 35.78-29.109 64.888-64.888 64.888z" fill="#c51abb"/></svg>