<svg xmlns="http://www.w3.org/2000/svg" width="640" height="640"><circle cx="320" cy="320" r="320" fill="#0033a0"/><path d="M178.2 441.9h1.2c62.7-65.7 181-205.1 215.3-248.1 7.9-9.9 12-20.9 24.7-20.9 18.7 0 41 13.5 41 19 0 20.8-103.8 217.4-103.8 259.8 0 10.5 10.8 15.3 20.5 15.3 43.4 0 163.7-151.1 208.7-332.4 0 0 11.7 16.9 22.7 40.9 9.3 20.2 13.9 36.7 13.8 36.8-46.3 124.9-150.7 310-248.2 310-45.8 0-73-22.7-73-68.1 0-33.2 34.4-100.7 50.1-130.2H350C230 462.2 189 522.3 143.8 522.3c-18.1 0-37.4-10.5-37.4-34.4 0-54 139.3-284.9 139.3-329.8 0-10.5-5.4-12.9-12.6-12.9-42.8 0-67.5 34.4-98.3 132-4.9 15.4-43.5 37.5-56.7 37.5-8.5 0-9.1-4.3-9.1-11.1C69 268.1 126.3 90 234.8 90c36.8 0 71.2 19 71.2 55.9 0 19.6-7.9 46.7-19.3 70.6L178.2 441.9" fill-rule="evenodd" clip-rule="evenodd" fill="#fff"/></svg>