<?xml version="1.0" standalone="no"?>
<!DOCTYPE svg PUBLIC "-//W3C//DTD SVG 20010904//EN"
 "http://www.w3.org/TR/2001/REC-SVG-20010904/DTD/svg10.dtd">
<svg version="1.0" xmlns="http://www.w3.org/2000/svg"
 width="600.000000pt" height="600.000000pt" viewBox="0 0 600.000000 600.000000"
 preserveAspectRatio="xMidYMid meet">
<metadata>
Created by potrace 1.14, written by Peter Selinger 2001-2017
</metadata>
<g transform="translate(0.000000,600.000000) scale(0.100000,-0.100000)"
fill="#000000" stroke="none">
<path d="M3895 5230 c3 -5 14 -10 23 -10 15 0 15 2 2 10 -20 13 -33 13 -25 0z"/>
<path d="M3958 5170 c-2 -5 -41 -12 -88 -15 -47 -4 -96 -10 -110 -15 -14 -5
-43 -11 -65 -15 -21 -4 -51 -15 -66 -26 -15 -10 -32 -19 -38 -19 -6 0 -11 -4
-11 -9 0 -7 -39 -27 -70 -35 -3 -1 -16 -8 -30 -16 -14 -8 -31 -15 -39 -16 -8
-2 -19 -11 -24 -20 -18 -31 -107 -114 -123 -114 -10 0 -14 -6 -11 -14 3 -8 -1
-17 -8 -20 -8 -3 -23 -23 -34 -45 -11 -21 -26 -41 -32 -43 -13 -4 -40 -78 -33
-90 3 -4 0 -8 -6 -8 -6 0 -15 -12 -20 -26 -8 -21 -15 -25 -34 -20 -34 8 -40
-5 -10 -21 19 -9 30 -10 39 -3 8 7 15 7 19 1 3 -5 0 -12 -6 -14 -8 -3 -6 -6 4
-6 10 -1 22 -10 28 -20 5 -11 19 -23 30 -26 11 -4 18 -11 15 -16 -4 -5 -1 -9
6 -9 20 0 39 -33 27 -48 -14 -17 -39 3 -32 26 3 9 -1 6 -9 -8 -9 -14 -13 -28
-10 -32 2 -5 -3 -11 -12 -15 -10 -3 -21 0 -26 8 -7 11 -12 12 -29 2 -28 -18
-50 -16 -50 5 0 15 -7 17 -37 14 -21 -2 -43 -8 -49 -13 -6 -5 -26 5 -50 26
-21 19 -50 35 -62 35 -15 0 -26 7 -29 20 -4 16 -8 18 -19 9 -11 -9 -14 -9 -14
1 0 8 -10 9 -30 5 -26 -6 -29 -4 -24 12 4 10 16 28 26 39 14 15 16 24 8 29 -6
4 -9 13 -6 21 3 7 0 16 -6 20 -7 4 -8 3 -4 -4 8 -14 -3 -15 -23 -3 -7 5 -11
13 -7 19 3 6 -1 15 -9 20 -21 11 -9 42 17 42 15 0 18 -5 13 -20 -5 -15 0 -23
18 -31 14 -6 30 -22 35 -35 l11 -23 44 24 c43 25 87 67 87 85 0 13 -47 13 -55
0 -3 -5 -13 -6 -21 -3 -21 8 1 23 34 23 13 0 38 10 55 23 17 12 41 27 52 32
38 20 30 44 -22 65 -26 11 -64 29 -83 39 -81 43 -161 70 -237 81 -78 10 -133
6 -133 -10 0 -4 21 -28 46 -54 60 -59 50 -72 -13 -16 -57 50 -98 72 -202 108
-64 23 -92 27 -183 27 l-107 0 -123 -63 c-111 -56 -208 -117 -153 -96 44 17
248 16 325 -1 41 -9 98 -21 125 -26 81 -14 93 -18 120 -43 32 -30 33 -43 1
-22 -14 9 -31 13 -39 10 -8 -3 -43 6 -78 21 -68 27 -188 45 -312 45 -88 0
-187 -29 -291 -84 -62 -33 -213 -173 -264 -244 -39 -54 -70 -148 -76 -228 -5
-68 -24 -158 -68 -314 -56 -204 -93 -506 -86 -710 2 -60 0 -110 -3 -110 -9 0
-4 -202 6 -250 4 -19 13 -59 21 -89 10 -39 11 -58 3 -67 -11 -14 -5 -141 12
-229 5 -27 11 -68 14 -90 6 -58 48 -188 63 -193 21 -7 26 28 14 107 -6 42 -14
144 -17 226 -5 137 -4 148 10 130 18 -23 31 -71 38 -140 10 -96 28 -200 44
-248 8 -27 13 -51 9 -54 -3 -3 1 -18 9 -34 8 -15 20 -52 25 -81 25 -127 77
-283 131 -394 47 -96 129 -188 223 -249 124 -80 206 -106 351 -112 108 -4 134
-2 265 27 322 70 331 72 354 55 142 -105 245 -137 434 -136 149 1 255 25 400
93 90 41 124 71 208 185 45 60 53 76 45 95 -11 28 -3 46 63 154 42 68 62 89
147 151 104 77 222 204 261 283 13 25 29 52 36 62 8 9 15 23 16 32 1 8 10 24
20 35 23 25 14 60 -9 41 -11 -9 -15 -9 -15 -1 0 6 8 15 18 18 29 11 40 34 32
69 -4 18 -6 35 -4 37 10 10 42 162 34 165 -10 4 6 56 28 89 7 12 11 27 7 32
-11 19 17 90 38 97 51 16 92 100 102 209 13 145 14 156 19 164 24 38 64 461
43 461 -4 0 -4 12 -1 26 5 19 4 25 -5 20 -8 -5 -11 7 -11 41 -1 106 -90 297
-172 368 -89 76 -199 117 -348 129 -94 8 -270 44 -270 56 0 14 46 20 76 11 16
-5 44 -17 61 -26 19 -9 42 -14 53 -10 21 7 28 25 9 25 -8 0 -8 4 1 14 9 12 4
17 -32 26 -68 17 -67 19 1 13 l65 -6 -25 40 c-41 69 -85 111 -166 160 -43 25
-85 52 -93 58 -8 7 -33 16 -54 20 -22 3 -60 16 -85 28 -25 11 -60 21 -78 21
-31 0 -32 1 -15 19 44 49 176 97 266 97 39 0 43 -3 55 -35 18 -50 72 -87 140
-98 135 -20 135 -20 193 7 54 25 81 46 59 46 -18 0 -23 3 -69 48 -25 23 -48
42 -53 42 -5 0 -9 9 -9 20 0 14 -5 18 -17 13 -11 -4 -14 -3 -9 5 8 13 36 16
36 4 0 -4 12 -9 26 -10 23 -2 24 0 10 14 -21 20 -20 28 2 19 12 -4 14 -3 6 5
-6 6 -18 12 -25 14 -8 1 -23 8 -34 15 -18 11 -17 12 11 7 18 -3 43 -8 56 -11
19 -5 27 -2 32 11 7 18 -18 42 -46 45 -10 1 -22 3 -28 4 -5 1 -15 3 -21 4 -5
0 -7 6 -4 11 4 6 -7 10 -27 10 -18 0 -46 8 -63 18 -32 20 -131 28 -137 12z
m-288 -164 c-14 -17 -35 -22 -25 -6 3 6 1 10 -4 10 -6 0 -11 -8 -11 -17 0 -15
-2 -15 -9 -4 -5 8 -16 11 -26 8 -9 -4 -14 -3 -10 3 3 6 15 10 25 10 11 0 24
10 31 21 10 19 12 20 27 6 13 -13 13 -19 2 -31z m-1337 -31 c21 -4 55 -16 75
-25 20 -10 40 -17 43 -15 3 2 6 -1 7 -8 1 -7 4 -24 8 -39 5 -22 3 -28 -10 -28
-9 0 -16 5 -16 11 0 6 -6 9 -14 6 -22 -9 -192 28 -222 48 -24 16 -25 18 -9 35
25 28 57 31 138 15z m484 -82 c41 -19 61 -65 43 -98 -13 -25 -78 -51 -91 -37
-16 18 -89 134 -89 142 0 23 82 19 137 -7z m-811 -112 c5 -5 29 -12 54 -16 24
-4 51 -14 60 -23 8 -9 21 -17 28 -18 28 -2 33 -4 28 -12 -11 -19 -16 -92 -7
-116 7 -16 7 -26 1 -26 -5 0 -7 -7 -3 -16 6 -17 -16 -66 -27 -59 -4 2 -16 -2
-28 -11 -25 -18 -25 -54 0 -54 15 0 17 -4 8 -19 -7 -13 -29 -23 -67 -31 -33
-7 -91 -31 -135 -56 -43 -24 -84 -44 -92 -44 -30 0 -47 40 -46 108 0 17 -4 32
-10 32 -5 0 -8 10 -6 23 2 12 0 27 -4 32 -22 30 -14 118 15 155 7 8 15 23 18
33 4 10 29 32 57 49 27 17 47 35 44 40 -6 10 52 37 82 38 11 0 24 -4 30 -9z
m1539 -31 c43 0 42 -83 -1 -102 -29 -13 -74 6 -74 31 0 22 53 98 58 83 2 -7 9
-12 17 -12z m-947 -77 c2 -9 -7 -13 -27 -13 -30 0 -39 9 -24 24 11 10 46 3 51
-11z m134 -5 c-7 -7 -8 -17 -2 -29 8 -14 6 -16 -10 -12 -16 4 -17 9 -8 29 6
13 16 24 22 24 6 0 6 -4 -2 -12z m-109 -23 c-3 -9 -8 -14 -10 -11 -3 3 -2 9 2
15 9 16 15 13 8 -4z m-40 -12 c-5 -12 -3 -14 8 -8 8 4 11 5 7 0 -10 -11 10
-45 26 -45 8 0 16 9 19 21 3 12 10 18 16 14 8 -4 8 -12 1 -25 -15 -27 -13 -30
13 -21 12 4 28 6 35 4 14 -6 16 13 2 22 -15 9 -2 25 14 19 8 -3 17 -1 20 5 5
7 13 7 26 -2 24 -14 26 -27 5 -27 -8 0 -12 -6 -9 -14 3 -8 -3 -19 -15 -25 -24
-13 -52 -14 -48 -2 2 9 -3 11 -24 11 -8 0 -8 -5 1 -15 7 -8 9 -15 4 -16 -5 0
11 -7 36 -14 25 -8 53 -12 62 -9 30 9 92 -14 147 -55 68 -51 74 -58 31 -35
-19 10 -55 19 -80 19 -25 1 -85 9 -135 18 -147 26 -190 28 -267 12 -92 -19
-219 -61 -280 -91 -63 -32 -73 -30 -36 6 16 17 35 30 43 30 7 0 52 16 101 36
94 38 214 74 252 74 15 0 22 6 22 21 0 13 -4 18 -12 13 -8 -5 -9 2 -5 26 4 18
7 41 7 51 0 11 4 19 10 19 5 0 6 -7 3 -17z m937 -16 c49 -22 52 -24 29 -31
-64 -21 -109 -17 -109 9 0 18 9 19 44 5 14 -5 26 -7 26 -4 0 3 -13 10 -30 15
-16 6 -30 15 -30 20 0 14 13 11 70 -14z m100 -36 c0 -5 -9 -11 -20 -14 -20 -5
-26 3 -13 16 9 10 33 8 33 -2z m20 -44 c0 -8 -12 -19 -27 -26 -24 -10 -26 -10
-10 2 9 8 17 19 17 26 0 6 5 11 10 11 6 0 10 -6 10 -13z m344 -16 c3 -4 -6 -6
-19 -3 -14 2 -25 6 -25 8 0 8 39 4 44 -5z m-849 -152 c5 -5 18 -9 29 -9 10 0
17 -3 13 -6 -3 -3 -2 -17 3 -30 8 -21 5 -26 -21 -40 -28 -14 -33 -14 -56 1
-13 9 -31 31 -38 48 -8 18 -14 28 -15 24 0 -5 -5 -5 -10 -2 -8 5 -8 11 0 20
12 14 77 10 95 -6z m-1025 -9 c-14 -11 -29 -20 -35 -20 -5 0 4 9 20 20 38 25
48 25 15 0z m1955 6 c36 -15 53 -55 18 -41 -10 3 -67 9 -128 12 -134 6 -147 9
-121 29 27 19 184 19 231 0z m-1421 -9 c13 -9 16 -20 12 -35 -8 -24 -96 -92
-119 -92 -9 0 -19 -4 -22 -10 -3 -5 -46 -10 -95 -10 -85 0 -90 1 -119 31 -36
35 -37 41 -13 60 27 23 90 41 187 55 121 16 148 16 169 1z m986 -27 c0 -5 -2
-10 -4 -10 -3 0 -8 5 -11 10 -3 6 -1 10 4 10 6 0 11 -4 11 -10z m80 -5 c5 3
10 2 10 -3 0 -5 35 -14 78 -20 42 -7 87 -15 100 -18 16 -5 22 -2 22 9 0 22 32
30 66 17 32 -13 44 -26 44 -53 0 -11 -5 -16 -12 -12 -7 3 -2 -2 11 -12 64 -46
60 -50 -14 -13 -88 44 -166 60 -318 62 -48 1 -81 5 -75 10 7 4 21 8 32 8 11 0
16 5 13 14 -8 19 3 28 19 15 7 -6 18 -8 24 -4z m-241 -54 c21 -11 60 -41 87
-66 27 -26 34 -36 16 -22 -17 14 -61 40 -97 58 -36 17 -65 36 -65 40 0 14 18
11 59 -10z m-295 -56 c-54 -39 -64 -42 -64 -20 0 8 -4 15 -10 15 -5 0 -10 4
-10 9 0 5 8 7 18 4 10 -2 34 2 53 10 59 26 64 18 13 -18z m686 -112 c23 -27
50 -64 60 -84 18 -35 18 -37 -1 -68 -13 -21 -24 -29 -32 -24 -12 8 -17 9 -37
12 -15 2 -86 103 -99 140 -9 29 -8 37 5 53 28 31 59 22 104 -29z m-1449 16
c19 -19 20 -25 10 -60 -7 -22 -20 -47 -31 -56 -10 -10 -26 -37 -35 -60 -16
-40 -51 -63 -75 -48 -5 3 -11 1 -15 -5 -3 -5 -24 -10 -45 -10 -21 0 -42 -5
-45 -10 -4 -6 -11 -8 -16 -5 -5 4 -9 1 -9 -5 0 -6 -12 -10 -27 -8 -25 3 -28 7
-29 43 0 37 37 115 55 115 4 0 26 18 49 40 22 22 46 40 51 40 6 0 27 11 47 25
45 31 87 32 115 4z m952 -8 c5 -5 9 -38 11 -75 l2 -66 -33 -11 c-26 -8 -39 -7
-67 6 -19 9 -46 18 -60 19 -13 2 -32 10 -41 20 -20 20 -26 20 -19 1 8 -20 -10
-19 -27 1 -15 19 -15 82 0 97 23 23 213 29 234 8z m-355 -18 c-7 -16 -18 -37
-26 -48 l-14 -20 7 20 c4 11 12 32 17 48 5 15 14 27 19 27 5 0 3 -12 -3 -27z
m266 -222 c24 -9 28 -49 7 -71 -9 -9 -29 -32 -45 -51 -16 -19 -31 -34 -35 -34
-3 -1 -19 -8 -36 -16 -40 -21 -92 -8 -97 24 -5 34 12 110 30 130 12 14 26 17
49 14 18 -3 35 -1 38 4 7 11 62 11 89 0z m1117 -143 c14 -86 6 -277 -16 -418
-25 -158 -35 -251 -35 -337 0 -45 -6 -112 -14 -150 -16 -75 -78 -257 -106
-313 -9 -19 -37 -87 -60 -150 -69 -185 -182 -414 -157 -318 3 12 2 30 -4 40
-6 12 -6 24 0 37 9 17 16 49 26 116 4 30 22 72 34 80 14 8 61 107 61 128 0 24
-25 11 -39 -20 -6 -14 -14 -23 -18 -20 -3 4 10 33 30 66 38 65 59 144 35 139
-17 -4 -15 5 32 152 24 73 40 143 40 172 0 53 18 147 31 164 5 6 11 33 14 59
11 115 32 179 28 90 -1 -30 3 -55 8 -55 5 0 9 8 9 18 0 10 8 28 17 42 16 22
16 23 -2 17 -15 -6 -16 -5 -5 8 10 12 10 15 0 15 -9 0 -10 16 -4 63 4 34 6 74
5 89 0 15 3 29 9 33 6 4 10 -7 10 -27 0 -59 15 -61 34 -4 16 46 18 77 14 217
-3 90 -8 173 -12 184 -3 11 0 6 9 -12 8 -18 20 -65 26 -105z"/>
<path d="M3104 4335 c8 -8 21 -15 28 -15 8 1 6 6 -6 15 -26 20 -42 19 -22 0z"/>
<path d="M4353 4999 c-1 -21 2 -41 7 -44 6 -3 10 5 10 19 0 13 3 31 6 39 3 8
-1 17 -8 19 -9 4 -14 -6 -15 -33z"/>
<path d="M3031 4686 c28 -32 31 -32 20 -3 -5 12 -16 24 -25 25 -14 3 -13 -1 5
-22z"/>
<path d="M3090 4660 c0 -5 5 -10 11 -10 5 0 7 5 4 10 -3 6 -8 10 -11 10 -2 0
-4 -4 -4 -10z"/>
</g>
</svg>
