<?xml version="1.0" standalone="no"?>
<!DOCTYPE svg PUBLIC "-//W3C//DTD SVG 20010904//EN"
 "http://www.w3.org/TR/2001/REC-SVG-20010904/DTD/svg10.dtd">
<svg version="1.0" xmlns="http://www.w3.org/2000/svg"
 width="115.000000pt" height="115.000000pt" viewBox="0 0 115.000000 115.000000"
 preserveAspectRatio="xMidYMid meet">
<metadata>
Created by potrace 1.14, written by Peter Selinger 2001-2017
</metadata>
<g transform="translate(0.000000,115.000000) scale(0.100000,-0.100000)"
fill="#000000" stroke="none">
<path d="M0 575 l0 -575 575 0 575 0 0 575 0 575 -575 0 -575 0 0 -575z m594
489 c9 -24 7 -54 -4 -54 -5 0 -10 7 -10 15 0 8 -7 15 -15 15 -8 0 -15 -7 -15
-15 0 -8 -4 -15 -10 -15 -11 0 -14 53 -3 63 12 13 51 7 57 -9z m52 -44 c8 0
14 -4 14 -10 0 -11 -11 -13 -34 -4 -9 4 -16 18 -16 33 0 40 14 49 18 12 2 -19
9 -31 18 -31z m-132 25 c8 -32 3 -41 -29 -47 -21 -5 -26 -1 -33 26 -10 34 -1
46 34 46 15 0 24 -8 28 -25z m-86 -7 c20 -20 14 -56 -10 -64 -38 -12 -65 45
-30 65 22 13 26 13 40 -1z m345 0 c14 -11 15 -17 4 -37 -15 -31 -28 -35 -52
-17 -17 12 -18 17 -7 40 13 29 29 33 55 14z m82 -48 c12 -20 -16 -40 -44 -33
-36 8 -36 9 -17 38 14 21 20 23 36 15 10 -6 22 -15 25 -20z m-527 -11 c9 -15
19 -18 35 -13 19 6 20 5 8 -10 -19 -23 -36 -20 -55 9 -18 27 -20 35 -8 35 4 0
13 -9 20 -21z m590 -40 c4 -11 2 -11 -9 -2 -15 15 -39 0 -39 -25 0 -12 -3 -13
-12 -4 -9 9 -8 16 4 29 8 10 13 25 10 33 -4 12 -2 12 18 -1 13 -9 26 -22 28
-30z m-623 21 c-4 -6 -10 -8 -15 -5 -17 11 -22 -17 -6 -33 15 -16 17 -15 22 6
7 24 24 31 24 9 0 -18 -21 -37 -40 -37 -24 0 -44 38 -29 56 13 16 54 20 44 4z
m388 -82 c9 -5 22 -6 27 -3 5 3 25 -2 45 -12 38 -18 53 -50 37 -79 -8 -14 -11
-11 -21 17 -12 36 -38 69 -54 69 -6 0 -1 -10 10 -22 29 -32 35 -60 22 -94
l-11 -29 -14 46 c-22 73 -104 136 -121 93 -5 -13 -7 -13 -14 -2 -13 19 -11 26
9 31 20 5 59 -2 85 -15z m-498 -64 c-87 -144 -81 -326 15 -478 17 -27 29 -50
27 -53 -8 -8 -55 61 -84 122 -54 118 -41 311 28 420 41 65 54 56 14 -11z m828
-32 c42 -92 53 -184 34 -277 -17 -82 -57 -173 -89 -201 -25 -24 -23 -10 7 35
90 135 97 313 18 463 -38 72 -39 76 -16 55 12 -10 32 -44 46 -75z m-323 13 c0
-25 -18 -25 -22 -1 -4 17 -1 23 9 19 7 -3 13 -11 13 -18z m-240 -52 c-31 -28
-61 -67 -75 -97 -12 -28 -34 -62 -49 -76 -25 -22 -23 -18 15 55 22 44 46 86
53 94 10 14 95 71 104 71 2 0 -19 -21 -48 -47z m120 7 c0 -24 -7 -35 -30 -48
-20 -11 -37 -33 -50 -67 -16 -42 -19 -45 -19 -22 -1 25 -3 27 -22 17 -42 -23
-28 -1 35 55 36 31 68 65 71 76 9 28 15 23 15 -11z m86 -230 c5 -37 3 -48 -12
-60 -16 -14 -17 -13 -9 5 12 29 8 70 -10 104 -16 32 -20 87 -8 118 7 17 21
-45 39 -167z m-85 110 c6 -33 20 -67 30 -76 11 -9 19 -26 19 -37 0 -18 -2 -17
-21 7 -15 19 -30 26 -54 26 -19 0 -37 -4 -40 -10 -10 -15 -25 -12 -19 4 3 8
19 18 35 21 39 9 42 18 23 59 -14 29 -15 38 -4 51 7 8 14 15 16 15 2 0 8 -27
15 -60z m279 -41 c30 -58 35 -117 16 -182 -19 -64 -24 -70 -49 -52 -16 12 -16
15 3 56 23 51 26 136 6 191 -17 47 -2 39 24 -13z m-77 -135 c1 -19 -3 -38 -9
-43 -5 -6 -10 4 -11 27 0 20 -13 62 -27 92 -38 81 -31 95 10 22 20 -36 36 -78
37 -98z m-443 34 c0 -7 -5 -20 -10 -28 -8 -12 -11 -13 -22 -2 -11 11 -9 16 6
28 24 17 26 17 26 2z m220 -47 c0 -23 -32 -32 -107 -29 l-78 3 65 16 c75 19
120 23 120 10z m-25 -76 c-52 -43 -117 -46 -142 -8 l-15 23 31 -16 c33 -17 76
-12 121 12 37 20 39 16 5 -11z m-204 -126 c13 -11 34 -29 46 -39 12 -10 24
-16 27 -13 13 14 5 -15 -10 -33 -12 -15 -14 -15 -11 -2 7 21 -3 31 -18 18 -15
-12 -84 37 -85 61 0 34 18 37 51 8z m544 8 c-14 -11 -15 -16 -5 -22 7 -4 16
-2 21 6 4 7 12 10 16 5 4 -4 -3 -17 -16 -27 -17 -14 -27 -17 -35 -9 -5 5 -17
10 -25 10 -11 0 -10 -4 4 -20 10 -11 13 -20 7 -20 -6 0 -14 5 -17 10 -3 5 -11
10 -18 10 -8 0 -8 -3 1 -12 16 -16 15 -25 -4 -32 -10 -4 -22 1 -31 11 -13 17
-14 16 -8 -4 4 -16 0 -23 -17 -29 -13 -4 -28 -7 -35 -6 -6 2 -14 -2 -18 -8 -3
-5 -21 -10 -39 -10 -25 0 -35 5 -39 20 -3 11 -1 20 4 20 5 0 9 -7 9 -15 0 -8
7 -15 15 -15 9 0 15 7 13 16 -2 10 10 20 35 29 20 7 37 9 37 4 0 -5 5 -9 12
-9 6 0 8 3 5 7 -4 3 19 23 52 44 32 20 62 42 65 48 4 6 12 11 19 11 6 0 3 -6
-8 -13z m-422 -81 c10 -8 15 -20 11 -30 -3 -9 -1 -16 5 -16 7 0 14 7 17 15 4
8 12 15 20 15 8 0 11 -6 7 -16 -3 -9 0 -20 8 -25 9 -6 0 -7 -26 -3 -22 4 -41
10 -43 15 -2 4 -9 6 -15 4 -7 -3 -18 -1 -26 4 -10 7 -11 13 -2 30 13 24 19 25
44 7z m142 -28 c5 4 6 -3 3 -15 -3 -12 -1 -24 6 -27 6 -2 3 -5 -6 -5 -12 -1
-18 6 -18 19 0 11 -4 20 -10 20 -5 0 -10 -9 -10 -21 0 -11 -4 -17 -10 -14 -5
3 -10 17 -10 30 0 22 3 23 24 15 13 -5 27 -6 31 -2z"/>
<path d="M556 1062 c-3 -5 1 -9 9 -9 8 0 12 4 9 9 -3 4 -7 8 -9 8 -2 0 -6 -4
-9 -8z"/>
<path d="M470 1020 c0 -5 4 -10 9 -10 6 0 13 5 16 10 3 6 -1 10 -9 10 -9 0
-16 -4 -16 -10z"/>
<path d="M392 1013 c5 -25 28 -28 28 -4 0 12 -6 21 -16 21 -9 0 -14 -7 -12
-17z"/>
<path d="M737 1023 c-12 -11 -7 -33 7 -33 12 0 26 20 26 36 0 7 -26 5 -33 -3z"/>
<path d="M810 986 c0 -9 7 -16 16 -16 17 0 14 22 -4 28 -7 2 -12 -3 -12 -12z"/>
<path d="M286 243 c-11 -11 -6 -23 9 -23 8 0 15 4 15 9 0 13 -16 22 -24 14z"/>
<path d="M326 211 c-4 -7 -5 -15 -2 -18 9 -9 19 4 14 18 -4 11 -6 11 -12 0z"/>
<path d="M776 167 c3 -10 9 -15 12 -12 3 3 0 11 -7 18 -10 9 -11 8 -5 -6z"/>
<path d="M660 125 c0 -8 5 -15 10 -15 6 0 10 7 10 15 0 8 -4 15 -10 15 -5 0
-10 -7 -10 -15z"/>
<path d="M410 150 c-9 -6 -10 -10 -3 -10 6 0 15 5 18 10 8 12 4 12 -15 0z"/>
</g>
</svg>
