<svg width="18" height="26" fill="none" xmlns="http://www.w3.org/2000/svg"><g opacity=".34" filter="url(#filter0_d)"><path d="M4.824 11.672V7.376h1.224c2.072 0 3.108-.524 3.108-1.572 0-1.008-1.028-1.52-3.084-1.536-.632 0-1.212.032-1.74.096L4.116.62A19.798 19.798 0 016.708.464c2.064 0 3.676.444 4.836 1.332 1.168.888 1.752 2.096 1.752 3.624 0 1.336-.416 2.432-1.248 3.288-.832.848-2.04 1.424-3.624 1.728l-.084 1.236H4.824zm1.752 1.272c.656 0 1.228.244 1.716.732.496.488.744 1.064.744 1.728 0 .672-.248 1.26-.744 1.764-.488.496-1.06.744-1.716.744-.672 0-1.256-.244-1.752-.732a2.43 2.43 0 01-.732-1.764c0-.664.244-1.24.732-1.728.496-.496 1.08-.744 1.752-.744z" fill="#BEBEBE"/></g><defs><filter id="filter0_d" x=".092" y=".464" width="17.204" height="25.448" filterUnits="userSpaceOnUse" color-interpolation-filters="sRGB"><feFlood flood-opacity="0" result="BackgroundImageFix"/><feColorMatrix in="SourceAlpha" values="0 0 0 0 0 0 0 0 0 0 0 0 0 0 0 0 0 0 127 0"/><feOffset dy="4"/><feGaussianBlur stdDeviation="2"/><feColorMatrix values="0 0 0 0 0 0 0 0 0 0 0 0 0 0 0 0 0 0 0.25 0"/><feBlend in2="BackgroundImageFix" result="effect1_dropShadow"/><feBlend in="SourceGraphic" in2="effect1_dropShadow" result="shape"/></filter></defs></svg>