<svg width="16" height="14" fill="none" xmlns="http://www.w3.org/2000/svg"><path fill-rule="evenodd" clip-rule="evenodd" d="M15.83 4.646L11.26.166A.555.555 0 0010.857 0a.554.554 0 00-.401.166.533.533 0 00-.17.394V2.8h-2C4.042 2.8 1.437 3.976.473 6.326.158 7.108 0 8.08 0 9.24c0 .968.378 2.284 1.134 3.946a19.28 19.28 0 00.214.473.99.99 0 00.116.192c.072.1.155.149.25.149.09 0 .16-.03.21-.088A.322.322 0 002 13.694c0-.053-.007-.13-.022-.232a1.775 1.775 0 01-.023-.206 14.33 14.33 0 01-.044-1.076 7.3 7.3 0 01.156-1.583c.104-.467.248-.871.433-1.212.184-.342.422-.636.714-.884a4.2 4.2 0 01.942-.608 5.181 5.181 0 011.188-.372c.455-.09.913-.153 1.375-.188a20.9 20.9 0 011.567-.053h2v2.24a.53.53 0 00.17.394c.112.11.246.166.401.166a.556.556 0 00.402-.166l4.571-4.48A.533.533 0 0016 5.04a.534.534 0 00-.17-.394z" fill="#fff"/></svg>