<svg width="35" height="25" fill="none" xmlns="http://www.w3.org/2000/svg"><path fill-rule="evenodd" clip-rule="evenodd" d="M.037 21.388L7.42 2.121s3.63-.961 7.47-1.528c-3.78 7.893-6.062 15.221-6.062 16.353 0 1.13.326 3.213 5.194 3.213 5.776 0 13.108-3.539 13.108-8.947 0 7.227-7.72 11.8-16.225 11.8-6.341 0-10.868-1.624-10.868-1.624z" fill="#9EC73D"/><path fill-rule="evenodd" clip-rule="evenodd" d="M27.13 11.212c0 7.227-7.72 11.8-16.225 11.8-6.34 0-10.797-1.624-10.797-1.624s3.817 3.59 13.553 3.59c9.734 0 21.137-6.048 21.137-14.799 0-12.05-17.337-9.827-17.337-9.827l-2.653 5.59s2.49-.285 4.553-.285c2.902 0 7.77 1.279 7.77 5.555z" fill="#6D53AF"/></svg>