<svg xmlns="http://www.w3.org/2000/svg" viewBox="0 0 508 508"><circle cx="254" cy="254" r="254" fill="#90dfaa"/><path d="M254 172.4L81.2 144c-1.6-.4-2.8.8-2.8 2.4v221.2c0 1.2.8 2.4 2 2.4L254 398.4v-226z" fill="#324a5e"/><path fill="#ced5e0" d="M254 180.8L87.6 153.6v209.6L254 390.4z"/><path d="M254 172.4L426.8 144c1.6-.4 2.8.8 2.8 2.4v221.2c0 1.2-.8 2.4-2 2.4L254 398.4v-226z" fill="#324a5e"/><path fill="#acb3ba" d="M254 180.8l166.4-27.2v209.6L254 390.4z"/><path d="M404 142.4c-48-13.6-104.8.4-150 38.8v209.2c45.2-38.4 102-52.8 150-38.8V142.4z" fill="#ced5e0"/><path d="M388 109.6c-42.8-3.2-93.6 23.2-134 71.6v209.2c40.4-48.4 91.2-74.8 134-71.6V109.6zm-284 32.8c48-13.6 104.8.4 150 38.8v209.2c-45.2-38.4-102-52.8-150-38.8V142.4z" fill="#e6e9ee"/><path d="M120 109.6c42.8-3.2 93.6 23.2 134 71.6v209.2c-40.4-48.4-91.2-74.8-134-71.6V109.6z" fill="#fff"/></svg>