<svg width="21" height="27" fill="none" xmlns="http://www.w3.org/2000/svg"><path fill-rule="evenodd" clip-rule="evenodd" d="M19.688 10.125H18v-2.25C18 3.533 14.467 0 10.125 0 5.783 0 2.25 3.533 2.25 7.875v2.25H.562a.562.562 0 00-.562.563V24.75C0 25.991 1.01 27 2.25 27H18c1.24 0 2.25-1.009 2.25-2.25V10.687a.562.562 0 00-.563-.562zm-7.879 11.75a.564.564 0 01-.559.625H9a.579.579 0 01-.217-.044.562.562 0 01-.342-.58l.355-3.192a2.225 2.225 0 01-.92-1.809c0-1.24 1.008-2.25 2.25-2.25 1.24 0 2.25 1.009 2.25 2.25 0 .727-.345 1.39-.921 1.81l.354 3.19zm-6.184-14v2.25h9v-2.25c0-2.481-2.019-4.5-4.5-4.5a4.505 4.505 0 00-4.5 4.5z" fill="#000" opacity=".24"/></svg>