<svg width="20" height="17" fill="none" xmlns="http://www.w3.org/2000/svg"><path opacity=".5" d="M20 1.922a8.193 8.193 0 01-2.356.646A4.12 4.12 0 0019.448.3a8.27 8.27 0 01-2.608.996 4.103 4.103 0 00-6.991 3.74A11.648 11.648 0 011.393.75 4.072 4.072 0 00.84 2.812a4.1 4.1 0 001.824 3.414 4.103 4.103 0 01-1.858-.515v.052a4.107 4.107 0 003.29 4.023 4.155 4.155 0 01-1.08.143c-.266 0-.522-.026-.773-.076a4.105 4.105 0 003.832 2.85A8.232 8.232 0 01.98 14.456 8.73 8.73 0 010 14.4a11.597 11.597 0 006.289 1.846c7.547 0 11.673-6.252 11.673-11.673l-.014-.531A8.193 8.193 0 0020 1.922z" fill="#fff"/></svg>